<svg width="37" height="36" viewBox="0 0 37 36" fill="none" xmlns="http://www.w3.org/2000/svg">
<path fill-rule="evenodd" clip-rule="evenodd" d="M4.65214 4.24957H0V2.74957H4.65214C6.00406 2.74957 7.15546 3.73221 7.36796 5.06732L7.99688 9.01882H29.7121C30.8545 9.01882 31.6906 10.0956 31.4076 11.2023L29.5067 18.6364C29.0823 20.2963 27.5869 21.4574 25.8736 21.4574H9.9766L10.3874 24.0383C10.484 24.6452 11.0073 25.0918 11.6218 25.0918H28.203V26.5918H11.6218C10.2699 26.5918 9.11852 25.6092 8.90602 24.2741L5.8866 5.3031C5.79002 4.69623 5.26665 4.24957 4.65214 4.24957ZM9.73786 19.9574H25.8736C26.9016 19.9574 27.7988 19.2607 28.0535 18.2648L29.9543 10.8308C29.9948 10.6726 29.8753 10.5188 29.7121 10.5188H8.23562L9.73786 19.9574Z" fill="black"/>
<path fill-rule="evenodd" clip-rule="evenodd" d="M13.5695 33.8258C14.3183 33.8258 15.0189 33.1799 15.0189 32.2656C15.0189 31.3513 14.3183 30.7054 13.5695 30.7054C12.8207 30.7054 12.1201 31.3513 12.1201 32.2656C12.1201 33.1799 12.8207 33.8258 13.5695 33.8258ZM13.5695 35.3258C15.1984 35.3258 16.5189 33.9557 16.5189 32.2656C16.5189 30.5755 15.1984 29.2054 13.5695 29.2054C11.9406 29.2054 10.6201 30.5755 10.6201 32.2656C10.6201 33.9557 11.9406 35.3258 13.5695 35.3258Z" fill="black"/>
<path fill-rule="evenodd" clip-rule="evenodd" d="M26.5466 33.8258C27.2954 33.8258 27.996 33.1799 27.996 32.2656C27.996 31.3513 27.2954 30.7054 26.5466 30.7054C25.7977 30.7054 25.0972 31.3513 25.0972 32.2656C25.0972 33.1799 25.7977 33.8258 26.5466 33.8258ZM26.5466 35.3258C28.1755 35.3258 29.496 33.9557 29.496 32.2656C29.496 30.5755 28.1755 29.2054 26.5466 29.2054C24.9177 29.2054 23.5972 30.5755 23.5972 32.2656C23.5972 33.9557 24.9177 35.3258 26.5466 35.3258Z" fill="black"/>
<path d="M37 7C37 10.866 33.866 14 30 14C26.134 14 23 10.866 23 7C23 3.13401 26.134 0 30 0C33.866 0 37 3.13401 37 7Z" fill="#E8AA31"/>
<path d="M29.6718 10.064C29.2291 10.064 28.8345 9.952 28.4878 9.728C28.1465 9.49867 27.8771 9.168 27.6798 8.736C27.4825 8.304 27.3838 7.792 27.3838 7.2C27.3838 6.608 27.4825 6.096 27.6798 5.664C27.8771 5.232 28.1465 4.904 28.4878 4.68C28.8345 4.45067 29.2291 4.336 29.6718 4.336C30.1091 4.336 30.4985 4.45067 30.8398 4.68C31.1865 4.904 31.4585 5.232 31.6558 5.664C31.8531 6.096 31.9518 6.608 31.9518 7.2C31.9518 7.792 31.8531 8.304 31.6558 8.736C31.4585 9.168 31.1865 9.49867 30.8398 9.728C30.4985 9.952 30.1091 10.064 29.6718 10.064ZM29.6718 9.352C30.1198 9.352 30.4771 9.168 30.7438 8.8C31.0158 8.432 31.1518 7.89867 31.1518 7.2C31.1518 6.50133 31.0158 5.968 30.7438 5.6C30.4771 5.232 30.1198 5.048 29.6718 5.048C29.2185 5.048 28.8558 5.232 28.5838 5.6C28.3171 5.968 28.1838 6.50133 28.1838 7.2C28.1838 7.89867 28.3171 8.432 28.5838 8.8C28.8558 9.168 29.2185 9.352 29.6718 9.352Z" fill="white"/>
</svg>
